<?xml version="1.0" standalone="no"?>
<!DOCTYPE svg PUBLIC "-//W3C//DTD SVG 20010904//EN"
 "http://www.w3.org/TR/2001/REC-SVG-20010904/DTD/svg10.dtd">
<svg version="1.0" xmlns="http://www.w3.org/2000/svg"
 width="1280.000000pt" height="919.000000pt" viewBox="0 0 1280.000000 919.000000"
 preserveAspectRatio="xMidYMid meet">
<metadata>
Created by potrace 1.15, written by Peter Selinger 2001-2017
</metadata>
<g transform="translate(0.000000,919.000000) scale(0.100000,-0.100000)"
fill="#000000" stroke="none">
<path d="M7052 8530 c3 -38 3 -70 1 -70 -2 0 -17 7 -34 15 -23 12 -34 13 -50
4 -16 -8 -18 -14 -10 -22 6 -6 11 -17 11 -24 0 -11 -7 -10 -36 2 -20 8 -49 14
-63 13 -33 -2 -50 8 -61 37 -8 22 -11 22 -47 10 -42 -14 -52 -35 -28 -55 21
-18 19 -30 -7 -30 -13 0 -30 -5 -38 -10 -13 -9 -12 -12 4 -25 33 -25 10 -32
-115 -38 -39 -1 -130 39 -169 75 -56 52 -144 118 -154 115 -20 -7 -17 -46 9
-119 14 -40 30 -77 34 -83 8 -10 61 -133 61 -141 0 -2 -11 -4 -25 -4 -31 0
-43 -24 -24 -47 12 -14 11 -15 -6 -10 -11 3 -45 9 -75 13 -30 3 -72 13 -94 20
-56 20 -93 17 -119 -9 -28 -27 -92 -216 -108 -317 -6 -41 -9 -97 -6 -124 5
-56 9 -51 -85 -116 -37 -26 -74 -65 -108 -113 -44 -65 -63 -82 -149 -136 -160
-99 -249 -204 -325 -381 -35 -82 -67 -154 -94 -210 -27 -58 -42 -150 -47 -301
-4 -83 -6 -91 -62 -199 l-58 -113 -168 -144 c-333 -287 -488 -466 -622 -718
-27 -49 -99 -172 -162 -272 -62 -100 -113 -184 -113 -187 0 -3 -14 -29 -32
-58 -31 -52 -53 -78 -252 -301 -92 -102 -96 -109 -97 -155 0 -26 -2 -67 -4
-91 -4 -48 -66 -215 -102 -273 -13 -21 -23 -40 -23 -42 0 -3 -25 -46 -55 -96
-86 -143 -104 -184 -116 -267 -10 -71 -45 -187 -73 -238 -35 -65 -36 -84 -9
-194 14 -58 26 -131 27 -161 2 -30 8 -68 14 -85 31 -81 52 -169 52 -219 0
-112 89 -283 172 -329 46 -26 59 -16 34 26 -27 46 -43 79 -51 106 l-7 24 31
-22 c17 -12 35 -20 40 -17 5 4 -8 45 -30 94 -42 95 -46 122 -25 173 11 27 12
57 5 149 -5 76 -5 136 2 178 6 34 8 73 5 87 -8 32 21 80 39 65 6 -5 20 -36 29
-67 10 -32 38 -85 62 -118 23 -33 63 -96 88 -141 52 -93 74 -117 166 -180 98
-67 112 -57 49 36 -75 112 -92 154 -93 235 -1 69 -18 113 -64 167 -8 9 -21 48
-29 85 -16 76 -25 271 -12 279 5 3 28 35 52 72 81 124 110 152 205 194 l86 38
29 -28 c45 -43 48 -53 27 -119 -26 -83 -10 -151 44 -186 24 -16 25 -20 19 -89
-3 -40 -15 -98 -25 -128 -50 -143 -42 -150 54 -52 88 89 101 120 108 262 5 83
12 130 28 170 30 74 28 106 -13 207 -19 48 -35 97 -35 109 0 34 -17 72 -50
112 -18 23 -30 48 -30 67 0 17 -16 54 -35 85 -40 62 -43 88 -15 145 21 44 130
135 522 439 204 159 347 306 426 438 20 35 75 101 121 148 46 47 90 101 98
120 26 66 38 83 84 119 141 110 245 201 339 295 l105 106 5 58 c4 50 8 57 24
54 34 -6 124 -91 138 -130 8 -23 13 -87 13 -172 0 -102 5 -147 18 -183 22 -62
22 -70 -9 -125 -63 -112 -109 -189 -128 -212 -12 -14 -30 -46 -40 -70 -48
-113 -91 -200 -125 -255 -82 -129 -185 -371 -211 -495 -12 -57 -16 -176 -11
-316 2 -45 -2 -90 -8 -102 -6 -11 -16 -53 -22 -93 -7 -50 -24 -99 -50 -149
-22 -43 -46 -109 -55 -155 -26 -124 -18 -323 17 -400 4 -11 19 -51 32 -90 97
-285 106 -318 114 -417 6 -65 -9 -125 -63 -253 -37 -90 -43 -124 -29 -167 7
-24 18 -74 24 -113 6 -38 15 -101 21 -139 17 -106 -1 -199 -61 -322 -45 -92
-49 -107 -49 -172 0 -65 -4 -80 -52 -179 -29 -59 -57 -111 -63 -116 -5 -4 -29
-13 -53 -19 -51 -15 -76 -40 -90 -93 -6 -22 -20 -71 -31 -110 -12 -38 -21 -84
-21 -102 l0 -31 88 1 87 2 6 -42 c7 -55 13 -59 46 -38 17 12 43 17 74 16 25
-1 78 5 116 13 92 20 178 9 204 -25 10 -13 24 -36 30 -51 18 -44 44 -35 85 32
37 60 69 80 128 80 51 0 146 -42 209 -94 28 -23 52 -35 57 -30 8 9 12 66 10
179 0 27 -7 72 -15 100 -7 27 -21 76 -30 107 -21 71 -50 115 -95 146 -76 50
-73 43 -65 157 6 85 4 114 -11 162 -16 55 -20 174 -9 308 19 239 25 299 34
355 17 101 13 150 -15 221 -17 44 -23 75 -20 99 3 19 10 69 15 110 5 42 30
136 55 210 25 74 54 175 66 224 12 50 28 102 35 117 32 62 45 117 45 201 0 48
-4 98 -9 111 -11 28 4 90 42 172 13 28 29 70 36 95 7 25 27 76 44 114 30 65
35 70 94 98 80 39 149 104 156 149 8 57 34 112 55 120 12 5 22 21 26 43 6 33
9 35 44 33 28 -2 37 2 40 16 2 10 -2 25 -10 34 -7 9 -13 35 -13 59 -1 39 2 43
25 46 22 3 27 11 44 80 l20 78 55 -6 c79 -9 130 -59 162 -157 16 -49 50 -112
110 -202 196 -293 242 -354 376 -497 48 -52 96 -109 106 -126 l18 -31 -28 -17
c-90 -55 -144 -92 -190 -132 -54 -45 -63 -64 -93 -192 -5 -19 -23 -86 -41
-148 -30 -103 -39 -120 -97 -192 -35 -44 -95 -108 -133 -142 -123 -110 -183
-234 -147 -305 48 -95 91 -161 173 -263 78 -98 185 -257 185 -276 0 -4 10 -27
23 -53 24 -48 65 -154 87 -229 16 -51 58 -90 139 -132 72 -36 131 -103 195
-222 26 -49 48 -88 49 -88 1 0 27 -9 57 -21 88 -33 155 -48 257 -60 81 -9 104
-15 140 -40 36 -25 44 -28 49 -15 6 15 2 63 -7 95 -6 21 233 16 275 -6 15 -8
46 -21 67 -28 35 -13 39 -13 39 3 0 9 -9 31 -20 47 -28 42 -25 50 19 65 38 12
74 11 164 -6 57 -10 48 13 -41 97 -61 59 -89 78 -136 94 -45 14 -81 38 -142
91 -45 40 -95 75 -111 77 -26 6 -121 20 -206 31 -50 6 -191 106 -226 160 -14
22 -69 83 -121 136 -52 52 -102 104 -111 116 -127 166 -203 335 -183 410 8 32
133 132 330 266 377 255 503 367 589 523 l44 80 -11 65 c-6 36 -12 119 -14
185 -2 105 -17 223 -54 426 -5 30 -10 65 -10 76 0 11 -32 79 -71 149 -40 71
-94 174 -122 229 -28 55 -67 125 -87 155 -109 162 -139 213 -230 385 -74 142
-150 261 -189 300 -45 43 -49 65 -31 155 5 28 5 81 -1 139 -6 52 -8 103 -5
115 4 14 31 33 78 56 63 30 79 43 118 100 25 36 53 77 63 90 l17 25 103 -106
c56 -57 138 -138 182 -179 59 -55 85 -88 99 -124 15 -39 58 -88 210 -243 215
-219 351 -332 543 -451 220 -136 443 -287 530 -357 l82 -67 -24 -49 c-21 -40
-25 -63 -25 -135 0 -48 5 -115 11 -149 10 -57 9 -66 -12 -106 -21 -41 -22 -55
-20 -217 1 -96 6 -185 12 -198 5 -14 9 -39 9 -56 0 -50 88 -194 106 -175 4 3
1 35 -5 70 -21 120 -8 206 37 239 43 32 56 70 54 154 -2 77 -1 81 27 108 l30
29 44 -26 c60 -35 126 -111 179 -204 24 -42 53 -94 66 -116 23 -42 29 -91 12
-102 -5 -3 -10 -18 -10 -33 0 -15 -12 -45 -27 -67 -22 -31 -29 -57 -36 -120
-4 -44 -7 -93 -7 -109 0 -16 -9 -46 -20 -68 -25 -48 -25 -58 -1 -58 31 0 14
-36 -50 -105 -62 -65 -71 -85 -41 -85 33 0 96 39 149 92 29 28 55 49 59 45 12
-12 -31 -98 -78 -158 -75 -93 -62 -103 50 -38 48 28 85 59 118 100 26 32 49
59 50 59 2 0 10 -13 19 -30 29 -57 11 -192 -38 -282 -17 -31 -28 -60 -24 -65
19 -18 115 59 152 122 47 80 68 153 61 214 -4 40 0 81 15 141 11 47 24 121 29
165 5 44 15 95 20 113 10 27 8 37 -7 60 -11 15 -32 61 -47 102 -15 41 -34 91
-41 110 -8 19 -15 73 -18 120 -4 95 -4 96 -136 315 -105 174 -146 264 -177
390 -8 33 -19 77 -25 98 -8 29 -47 78 -164 200 -129 137 -435 506 -513 619
-156 227 -297 383 -462 508 -44 34 -135 117 -258 236 -62 61 -63 62 -56 105 4
24 11 55 16 68 9 24 26 130 34 214 3 29 -5 94 -21 171 -14 68 -25 134 -25 146
0 31 -34 87 -163 268 -86 120 -121 161 -162 188 -70 47 -104 118 -40 84 14 -7
28 -11 31 -8 6 7 -23 53 -70 112 -22 28 -26 40 -18 48 7 7 12 26 12 43 0 16 4
45 10 64 5 19 16 73 24 121 9 48 22 113 31 146 21 82 19 140 -6 175 -21 29
-21 29 -1 72 45 99 47 106 24 129 l-21 21 -57 -44 c-121 -94 -147 -111 -186
-125 -56 -19 -81 -18 -96 7 l-13 20 -33 -20 c-42 -26 -68 -27 -64 -3 8 50 -57
99 -69 52 -7 -28 -27 -25 -43 6 -13 23 -12 30 3 56 11 19 14 35 9 40 -14 14
-71 -19 -82 -47 -14 -36 -30 -30 -30 11 0 26 -8 43 -29 65 -29 29 -61 39 -61
18 0 -6 7 -17 15 -25 8 -9 15 -23 15 -32 0 -11 -3 -13 -8 -6 -4 6 -17 14 -29
18 -13 4 -23 11 -23 16 0 5 -16 17 -35 26 -34 16 -37 16 -55 -1 -19 -17 -21
-17 -40 0 -11 10 -20 26 -20 36 0 23 -19 34 -33 20 -21 -21 -45 -11 -62 25
-13 29 -19 33 -31 23 -18 -15 -39 1 -48 37 -6 22 -11 25 -37 22 -17 -3 -34 1
-40 9 -6 7 -18 13 -27 13 -12 0 -14 -12 -10 -70z"/>
</g>
</svg>
